<svg width="60" height="60" viewBox="0 0 60 60" fill="none" xmlns="http://www.w3.org/2000/svg">
<g clip-path="url(#clip0_46_54)">
<path d="M43.2083 20.5451H36.101V17.5695C36.101 16.1526 34.9916 15 33.628 15H26.3715C25.0079 15 23.8985 16.1526 23.8985 17.5695V20.5451H16.7912C14.9807 20.5451 13.5076 22.0756 13.5076 23.9568C13.5076 25.6656 13.3392 27.2002 14.5855 28.926C15.2906 29.9024 16.2596 30.5989 17.3877 30.9401L28.3419 34.2539C29.4263 34.582 30.5729 34.5821 31.6575 34.2539L42.6117 30.9401C43.7398 30.5988 44.7088 29.9024 45.4139 28.926C46.6658 27.1924 46.4918 25.6421 46.4918 23.9568C46.4918 22.0756 45.0189 20.5451 43.2083 20.5451ZM25.9932 17.5695C25.9932 17.3527 26.1629 17.1764 26.3715 17.1764H33.628C33.8366 17.1764 34.0063 17.3528 34.0063 17.5695V20.5451H25.9932V17.5695Z" fill="#1E1E1E"/>
<path d="M43.2039 33.514C31.3828 36.9966 31.5359 37.0671 30 37.0671C28.4751 37.0671 28.8369 37.0614 16.7961 33.514C15.5265 33.1399 14.4022 32.4505 13.5 31.5V41.6759C13.5 43.5088 14.9737 45 16.7851 45H43.2149C45.0263 45 46.5 43.5088 46.5 41.6759V31.5C45.5977 32.4504 44.4734 33.1399 43.2039 33.514Z" fill="#1E1E1E"/>
</g>
<defs>
<clipPath id="clip0_46_54">
<rect width="60" height="60" fill="white"/>
</clipPath>
</defs>
</svg>
