<svg width="60" height="60" viewBox="0 0 60 60" fill="none" xmlns="http://www.w3.org/2000/svg">
<g clip-path="url(#clip0_46_82)">
<path fill-rule="evenodd" clip-rule="evenodd" d="M20.1 44.4H35.1192C35.7299 45.6812 36.4841 46.889 37.3674 48H20.1C15.6342 48 12 44.3658 12 39.9C12 35.4342 15.6342 31.8 20.1 31.8H32.7C34.1886 31.8 35.4 30.5886 35.4 29.1C35.4 27.6114 34.1886 26.4 32.7 26.4H21.513C22.4705 25.305 23.2891 24.0958 23.9502 22.8H32.7C36.174 22.8 39 25.626 39 29.1C39 32.574 36.174 35.4 32.7 35.4H20.1C17.6178 35.4 15.6 37.4178 15.6 39.9C15.6 42.3822 17.6178 44.4 20.1 44.4ZM12 17.4C12 14.4228 14.4228 12 17.4 12C20.3772 12 22.8 14.4228 22.8 17.4C22.8 23.1366 17.4 26.4 17.4 26.4C17.4 26.4 12 23.1384 12 17.4ZM16.3665 19.8941C16.6941 20.0299 17.0453 20.0999 17.4 20.1C18.1163 20.1002 18.8034 19.8159 19.3101 19.3096C19.8168 18.8032 20.1016 18.1163 20.1018 17.4C20.102 16.6837 19.8177 15.9966 19.3114 15.4899C18.805 14.9832 18.1181 14.6984 17.4018 14.6982C17.0471 14.6981 16.6959 14.7678 16.3682 14.9035C16.0404 15.0391 15.7426 15.2379 15.4917 15.4886C15.2408 15.7394 15.0418 16.037 14.9059 16.3647C14.7701 16.6923 14.7001 17.0435 14.7 17.3982C14.6999 17.7529 14.7696 18.1041 14.9053 18.4318C15.0409 18.7596 15.2397 19.0574 15.4904 19.3083C15.7412 19.5592 16.0388 19.7582 16.3665 19.8941ZM37.1999 39C37.1999 36.0228 39.6227 33.6 42.5999 33.6C45.5771 33.6 47.9999 36.0228 47.9999 39C47.9999 44.7366 42.5999 48 42.5999 48C42.5999 48 37.1999 44.7384 37.1999 39ZM41.5664 41.4941C41.894 41.63 42.2453 41.6998 42.5999 41.7C43.3163 41.7002 44.0034 41.416 44.5101 40.9096C45.0168 40.4033 45.3016 39.7164 45.3017 39C45.3019 38.2836 45.0177 37.5965 44.5114 37.0898C44.005 36.5831 43.3181 36.2984 42.6017 36.2982C42.2471 36.298 41.8958 36.3679 41.568 36.5034C41.2404 36.6391 40.9425 36.8378 40.6916 37.0886C40.4408 37.3393 40.2418 37.637 40.1059 37.9646C39.97 38.2922 39.9001 38.6436 39.8999 38.9982C39.8998 39.3528 39.9696 39.7041 40.1051 40.0319C40.2409 40.3595 40.4396 40.6574 40.6903 40.9083C40.9411 41.1591 41.2388 41.3582 41.5664 41.4941Z" fill="#1E1E1E"/>
</g>
<defs>
<clipPath id="clip0_46_82">
<rect width="60" height="60" fill="white"/>
</clipPath>
</defs>
</svg>
