<svg width="60" height="60" viewBox="0 0 60 60" fill="none" xmlns="http://www.w3.org/2000/svg">
<path d="M30.3705 26.284C33.9007 26.284 36.7625 23.4222 36.7625 19.892C36.7625 16.3618 33.9007 13.5 30.3705 13.5C26.8403 13.5 23.9785 16.3618 23.9785 19.892C23.9785 23.4222 26.8403 26.284 30.3705 26.284Z" fill="#1E1E1E"/>
<path d="M43.3015 26.284C45.5332 26.284 47.3424 24.4748 47.3424 22.2431C47.3424 20.0113 45.5332 18.2021 43.3015 18.2021C41.0697 18.2021 39.2606 20.0113 39.2606 22.2431C39.2606 24.4748 41.0697 26.284 43.3015 26.284Z" fill="#1E1E1E"/>
<path d="M17.4395 26.284C19.6712 26.284 21.4804 24.4748 21.4804 22.2431C21.4804 20.0113 19.6712 18.2021 17.4395 18.2021C15.2077 18.2021 13.3986 20.0113 13.3986 22.2431C13.3986 24.4748 15.2077 26.284 17.4395 26.284Z" fill="#1E1E1E"/>
<path d="M21.4209 29.9128C19.8303 28.6096 18.3897 28.7821 16.5505 28.7821C13.7997 28.7821 11.5618 31.0068 11.5618 33.7407V41.7645C11.5618 42.9518 12.5309 43.9172 13.7226 43.9172C18.8675 43.9172 18.2477 44.0103 18.2477 43.6953C18.2477 38.0096 17.5742 33.8401 21.4209 29.9128Z" fill="#1E1E1E"/>
<path d="M32.1199 28.8114C28.9074 28.5434 26.1151 28.8145 23.7067 30.8025C19.6762 34.0308 20.4519 38.3776 20.4519 43.6953C20.4519 45.1022 21.5966 46.2682 23.0249 46.2682C38.5334 46.2682 39.1506 46.7685 40.0702 44.7319C40.3719 44.0432 40.2892 44.2621 40.2892 37.6735C40.2892 32.4404 35.758 28.8114 32.1199 28.8114Z" fill="#1E1E1E"/>
<path d="M44.1904 28.782C42.3412 28.782 40.9085 28.6112 39.32 29.9127C43.138 33.8108 42.4932 37.6959 42.4932 43.6952C42.4932 44.0122 41.9787 43.9171 46.9412 43.9171C48.1755 43.9171 49.1792 42.9172 49.1792 41.688V33.7406C49.1792 31.0067 46.9412 28.782 44.1904 28.782Z" fill="#1E1E1E"/>
</svg>
