<svg width="60" height="60" viewBox="0 0 60 60" fill="none" xmlns="http://www.w3.org/2000/svg">
<g clip-path="url(#clip0_46_78)">
<path d="M47.173 24.7188C46.4144 24.6114 45.6905 24.3385 45.0551 23.9206C44.4197 23.5026 43.8892 22.9502 43.5031 22.3046C43.117 21.6591 42.8853 20.9369 42.8252 20.1919C42.7651 19.447 42.8782 18.6984 43.156 18.0019C43.3326 17.5466 43.3586 17.0488 43.2304 16.5783C43.1022 16.1078 42.8261 15.6883 42.441 15.3785C40.7406 13.9865 38.8052 12.893 36.721 12.1467C36.2464 11.9749 35.7283 11.9534 35.2404 12.0854C34.7526 12.2174 34.3199 12.4961 34.004 12.8818C33.5286 13.4745 32.9209 13.9538 32.2272 14.2835C31.5334 14.6132 30.7718 14.7845 30 14.7845C29.2282 14.7845 28.4666 14.6132 27.7728 14.2835C27.0791 13.9538 26.4715 13.4745 25.996 12.8818C25.6801 12.4961 25.2475 12.2174 24.7596 12.0854C24.2718 11.9534 23.7536 11.9749 23.279 12.1467C21.3546 12.8357 19.5553 13.8197 17.949 15.0616C17.5441 15.3741 17.2525 15.8048 17.1168 16.2905C16.9811 16.7763 17.0085 17.2916 17.195 17.7611C17.495 18.476 17.6189 19.2495 17.5569 20.0195C17.4949 20.7895 17.2486 21.5347 16.8378 22.1951C16.427 22.8556 15.8631 23.413 15.1915 23.8227C14.5198 24.2324 13.759 24.4828 12.97 24.5541C12.4578 24.6075 11.9768 24.8198 11.5976 25.1597C11.2185 25.4997 10.9613 25.9493 10.864 26.4424C10.622 27.6105 10.5 28.7993 10.5 29.991C10.4982 30.9887 10.5809 31.9848 10.747 32.9693C10.8297 33.4782 11.0821 33.9464 11.4651 34.3015C11.8481 34.6565 12.3405 34.8787 12.866 34.9336C13.6723 35.0074 14.4487 35.2684 15.1302 35.6947C15.8118 36.121 16.3787 36.7003 16.7835 37.3841C17.1883 38.0678 17.4192 38.8361 17.4568 39.6247C17.4945 40.4133 17.3379 41.1993 17 41.9167C16.7789 42.3834 16.7241 42.9087 16.8442 43.4093C16.9643 43.9098 17.2525 44.3569 17.663 44.6796C19.3532 46.0462 21.27 47.122 23.331 47.8606C23.5946 47.9496 23.8711 47.9967 24.15 48C24.5324 47.9992 24.9091 47.909 25.2484 47.737C25.5877 47.565 25.8797 47.3162 26.1 47.0115C26.5634 46.3534 27.1845 45.8154 27.9094 45.4444C28.6343 45.0734 29.4412 44.8804 30.26 44.8823C31.0533 44.8833 31.8355 45.0648 32.5441 45.4125C33.2528 45.7601 33.8684 46.2642 34.342 46.8847C34.657 47.2975 35.1032 47.5972 35.6111 47.737C36.119 47.8768 36.66 47.849 37.15 47.6578C39.0346 46.9184 40.7891 45.8964 42.35 44.6289C42.7421 44.3128 43.0213 43.8837 43.1474 43.4032C43.2736 42.9227 43.2402 42.4156 43.052 41.9548C42.7462 41.2491 42.6129 40.4838 42.6626 39.7192C42.7122 38.9547 42.9435 38.2119 43.3381 37.5494C43.7327 36.887 44.2798 36.323 44.9363 35.902C45.5929 35.4811 46.3408 35.2146 47.121 35.1238C47.6269 35.0555 48.0975 34.8321 48.4644 34.4857C48.8314 34.1394 49.0757 33.6882 49.162 33.1974C49.3708 32.1403 49.4839 31.0674 49.5 29.991C49.5002 28.8556 49.3914 27.7228 49.175 26.6072C49.0872 26.1272 48.8465 25.6865 48.4872 25.3475C48.1278 25.0085 47.6679 24.7885 47.173 24.7188ZM36.5 29.991C36.5 31.2443 36.1188 32.4694 35.4046 33.5115C34.6903 34.5536 33.6752 35.3658 32.4875 35.8454C31.2997 36.325 29.9928 36.4505 28.7319 36.206C27.4711 35.9615 26.3129 35.358 25.4038 34.4717C24.4948 33.5855 23.8757 32.4564 23.6249 31.2272C23.3741 29.998 23.5028 28.7239 23.9948 27.566C24.4868 26.4081 25.3199 25.4185 26.3888 24.7222C27.4577 24.0259 28.7144 23.6543 30 23.6543C31.7239 23.6543 33.3772 24.3219 34.5962 25.5102C35.8152 26.6986 36.5 28.3104 36.5 29.991Z" fill="#1E1E1E"/>
</g>
<defs>
<clipPath id="clip0_46_78">
<rect width="60" height="60" fill="white"/>
</clipPath>
</defs>
</svg>
