<svg width="60" height="60" viewBox="0 0 60 60" fill="none" xmlns="http://www.w3.org/2000/svg">
<g clip-path="url(#clip0_46_42)">
<rect width="60" height="60" rx="10" fill="white"/>
<path d="M30.012 48C25.9233 48.0027 21.9555 46.6133 18.7616 44.0605C15.5678 41.5077 13.3382 37.9436 12.4399 33.9548C11.5415 29.966 12.0279 25.7903 13.8191 22.1147C15.6102 18.4392 18.5993 15.4831 22.2945 13.7327C25.9896 11.9824 30.1705 11.5423 34.1491 12.4847C38.1277 13.4272 41.6669 15.6961 44.1842 18.9181C46.7014 22.14 48.0468 26.123 47.9988 30.2114C47.9507 34.2998 46.5122 38.2501 43.92 41.412C42.2329 43.4699 40.1105 45.1281 37.7056 46.2673C35.3006 47.4064 32.6731 47.9982 30.012 48ZM30.012 14.4C26.9266 14.4 23.9105 15.3149 21.3451 17.0291C18.7797 18.7432 16.7802 21.1796 15.5995 24.0301C14.4188 26.8807 14.1098 30.0173 14.7118 33.0434C15.3137 36.0695 16.7994 38.8492 18.9811 41.0309C21.1628 43.2126 23.9425 44.6983 26.9686 45.3002C29.9947 45.9022 33.1313 45.5932 35.9819 44.4125C38.8324 43.2318 41.2688 41.2323 42.9829 38.6669C44.6971 36.1015 45.612 33.0854 45.612 30C45.612 25.8626 43.9684 21.8947 41.0429 18.9691C38.1173 16.0436 34.1494 14.4 30.012 14.4Z" fill="#A5A6F6"/>
<path fill-rule="evenodd" clip-rule="evenodd" d="M22.3184 46.2673C24.7233 47.4065 27.3509 47.9982 30.012 48C32.673 47.9982 35.3006 47.4065 37.7055 46.2673C40.1104 45.1281 42.2328 43.4699 43.92 41.412L44.544 40.644L43.92 39.888C42.2314 37.8328 40.1084 36.1773 37.7036 35.0407C35.2987 33.9041 32.6719 33.3146 30.012 33.3146C27.3521 33.3146 24.7252 33.9041 22.3204 35.0407C19.9156 36.1773 17.7925 37.8328 16.104 39.888L15.48 40.644L16.104 41.412C17.7911 43.4699 19.9135 45.1281 22.3184 46.2673Z" fill="#A5A6F6"/>
<path fill-rule="evenodd" clip-rule="evenodd" d="M26.0119 29.9866C27.1959 30.7778 28.588 31.2 30.012 31.2C31.9215 31.2 33.7529 30.4415 35.1032 29.0912C36.4534 27.7409 37.212 25.9096 37.212 24C37.212 22.576 36.7897 21.184 35.9986 19.9999C35.2074 18.8159 34.0829 17.8931 32.7673 17.3481C31.4517 16.8032 30.004 16.6606 28.6073 16.9384C27.2107 17.2162 25.9278 17.9019 24.9208 18.9089C23.9139 19.9158 23.2281 21.1987 22.9503 22.5954C22.6725 23.9921 22.8151 25.4397 23.3601 26.7554C23.905 28.071 24.8278 29.1955 26.0119 29.9866Z" fill="#A5A6F6"/>
</g>
<defs>
<clipPath id="clip0_46_42">
<rect width="60" height="60" fill="white"/>
</clipPath>
</defs>
</svg>
